<?xml version="1.0" encoding="utf-8"?>
<?xml-stylesheet type="text/xsl" href="rss1.xsl"?>
<rss version="2.0" xmlns:atom="http://www.w3.org/2005/Atom" xmlns:content="http://purl.org/rss/1.0/modules/content/" xmlns:dc="http://purl.org/dc/elements/1.1/" xmlns:media="http://search.yahoo.com/mrss/">
<channel>
 <title>Getty</title>
 <link>http://www.gettyimg.com/</link>
 <atom:link href="http://www.gettyimg.com/" rel="self" type="application/rss+xml" />

 
                <item>
                <title><![CDATA[【HD Live Performances】HDTV - Justin Timberlake - Selfish (Live at the Graham Norton Show) HDTV 1080i 23.02.2024]]></title>
                <link><![CDATA[https://sharemania.us/threads/justin-timberlake-selfish-live-at-the-graham-norton-show-hdtv-1080i-23-02-2024.239672/]]></link>
                <description><![CDATA[<article>
<blockquote class="messageText SelectQuoteContainer ugc baseHtml">
<img src="https://images2.imgbox.com/54/49/uZ606knf_o.jpg" class="bbCodeImage LbImage" alt="[​IMG]" data-url="https://images2.imgbox.com/54/49/uZ606knf_o.jpg" style=""><br>
<img src="https://images2.imgbox.com/e7/6f/0h25isxq_o.jpg" class="bbCodeImage LbImage" alt="[​IMG]" data-url="https://images2.imgbox.com/e7/6f/0h25isxq_o.jpg" style=""><br>
<br>
<div class="ToggleTriggerAnchor bbCodeSpoilerContainer">
<button type="button" class="button bbCodeSpoilerButton ToggleTrigger Tooltip JsOnly" data-target="> .SpoilerTarget"><span>Spoiler: <span class="SpoilerTitle">MediaInfo</span></span></button>
<div class="SpoilerTarget bbCodeSpoilerText">Format : Matroska<br>
Format version : Version 4<br>
File size : 162 MiB<br>
Duration : 3 min 56 s<br>
Overall bit rate : 5 740 kb/s<br>
Frame rate : 25.000 FPS<br>
Writing application : VideoReDo (Lavf58.29.100)<br>
Writing library : VideoReDo (Lavf58.29.100)<br>
ErrorDetectionType : Per level 1<br>
Video<br>
ID : 1<br>
Format : AVC<br>
Format/Info : Advanced Video Codec<br>
Format profile : High@L4<br>
Format settings : CABAC / 4 Ref Frames<br>
Format settings, CABAC : Yes<br>
Format settings, Reference : 4 frames<br>
Format settings, GOP : M=8, N=24<br>
Codec ID : V_MPEG4/ISO/AVC<br>
Duration : 3 min 56 s<br>
Bit rate : 5 433 kb/s<br>
Width : 1 920 pixels<br>
Height : 1 080 pixels<br>
Display aspect ratio : 16:9<br>
Active Format Description : Letterbox 16:9 image, with alternative 14:9 center<br>
Frame rate mode : Constant<br>
Frame rate : 25.000 FPS<br>
Standard : Component<br>
Color space : YUV<br>
Chroma subsampling : 4:2:0<br>
Bit depth : 8 bits<br>
Scan type : MBAFF<br>
Scan type, store method : Interleaved fields<br>
Scan order : Top Field First<br>
Bits/(Pixel*Frame) : 0.105<br>
Stream size : 153 MiB (95%)<br>
Default : No<br>
Forced : No<br>
Color range : Limited<br>
Color primaries : BT.709<br>
Transfer characteristics : BT.709<br>
Matrix coefficients : BT.709<br>
Audio<br>
ID : 2<br>
Format : AC-3<br>
Format/Info : Audio Coding 3<br>
Commercial name : Dolby Digital<br>
Codec ID : A_AC3<br>
Duration : 3 min 56 s<br>
Bit rate mode : Constant<br>
Bit rate : 192 kb/s<br>
Channel(s) : 2 channels<br>
Channel layout : L R<br>
Sampling rate : 48.0 kHz<br>
Frame rate : 31.250 FPS (1536 SPF)<br>
Compression mode : Lossy<br>
Stream size : 5.40 MiB (3%)<br>
Language : English<br>
Service kind : Complete Main<br>
Default : Yes<br>
Forced : No<br>
Text<br>
ID : 3<br>
Format : DVB Subtitle<br>
Codec ID : S_DVBSUB<br>
Codec ID/Info : Picture based subtitle format used on DVBs<br>
Duration : 3 min 54 s<br>
Language : English<br>
Default : No<br>
Forced : No<br>
Menu<br>
00:00:00.000 : Chapter 1</div>
</div><br>
<div class="bbCodeBlock bbCodeVfcHH HiddenContent">
<div class="attribution type">Hidden Content:</div>
<blockquote>You must reply before you can see the hidden data contained here.</blockquote>
</div><span style="font-size: 22px">Bonus</span><br>
<img src="https://images2.imgbox.com/d4/9b/oHuD7GM7_o.jpg" class="bbCodeImage LbImage" alt="[​IMG]" data-url="https://images2.imgbox.com/d4/9b/oHuD7GM7_o.jpg" style=""><br>
<div class="bbCodeBlock bbCodeVfcHH HiddenContent">
<div class="attribution type">Hidden Content:</div>
<blockquote>You must reply before you can see the hidden data contained here.</blockquote>
</div>
<div class="messageTextEndMarker">&nbsp;</div>
</blockquote>
</article>]]></description>
                <author><![CDATA[thankstome]]></author>
                </item>

                </channel></rss>